<?xml version="1.0" encoding="utf-8"?>
<!-- Generator: Adobe Illustrator 24.0.3, SVG Export Plug-In . SVG Version: 6.00 Build 0)  -->
<svg version="1.1" id="Layer_1" xmlns="http://www.w3.org/2000/svg" xmlns:xlink="http://www.w3.org/1999/xlink" x="0px" y="0px"
	 viewBox="0 0 300 300" style="enable-background:new 0 0 300 300;" xml:space="preserve" width="200px">
<style type="text/css">
	.st0{fill-rule:evenodd;clip-rule:evenodd;fill:#682673;}
</style>
<g>
	<path id="Fill-1" class="st0" d="M253.7,192c-23.2,57.4-88.4,85.1-145.7,61.9s-85-88.5-61.8-145.8c20.7-51.2,74.9-78.7,127.1-67.5
		c6.2,1.3,12.4,3.1,18.5,5.6c6.1,2.5,11.8,5.5,17.2,8.9l-14.6,36.1l-34.3,84.9l-35.7-14.5l34.3-84.9c-32.3-3.9-64.5,14-77.2,45.6
		c-15.3,37.8,3,80.9,40.8,96.2c37.8,15.3,80.8-3,96.1-40.8c7.3-18.1,6.9-37.4,0.3-54.3l17.9-44.3C261.6,109.8,269.6,152.7,253.7,192
		 M205.9,11.4C129.5-19.5,42.5,17.5,11.6,94c-30.9,76.5,6.1,163.6,82.5,194.6s163.5-6.1,194.3-82.6S282.4,42.3,205.9,11.4"/>
</g>
</svg>
